<svg xmlns="http://www.w3.org/2000/svg" width="45" height="40" viewBox="0 0 45 40"> 
    <path fill="#F44336" fill-rule="nonzero" d="M43.52 28.811L28.843 3.646a7.368 7.368 0 0 0-12.696 0L1.3 29.098a7.213 7.213 0 0 0 0 7.255 7.366 7.366 0 0 0 6.349 3.63h29.697c.021 0 .042 0 .064-.002 4.013-.03 7.269-3.274 7.269-7.255 0-1.397-.4-2.746-1.159-3.916zM22.5 11.49c.992 0 1.796.796 1.796 1.778l-.459 10.605c-.046.959-.799 1.323-1.337 1.323-.603 0-1.284-.314-1.337-1.323l-.46-10.605c0-.982.805-1.778 1.797-1.778zm1.62 19.084a2.307 2.307 0 0 1-1.62.663c-.606 0-1.198-.24-1.626-.663a2.278 2.278 0 0 1-.67-1.61c0-.6.243-1.182.67-1.604a2.33 2.33 0 0 1 1.626-.668c.606 0 1.198.245 1.62.668.432.423.676 1.01.676 1.605 0 .6-.243 1.185-.675 1.609z"/> 
</svg>